<svg width="150" height="150" viewBox="0 0 150 150" fill="none" xmlns="http://www.w3.org/2000/svg">
    <path d="M22.3154 97.3829H37.4267V117.218C37.4267 118.586 38.555 119.697 39.9453 119.697C41.3355 119.697 42.4638 118.586 42.4638 117.218V97.3829H50.0194C51.4097 97.3829 52.538 96.2722 52.538 94.9036C52.538 93.535 51.4097 92.4242 50.0194 92.4242H42.4638V87.4655C42.4638 86.0969 41.3355 84.9862 39.9453 84.9862C38.555 84.9862 37.4267 86.0969 37.4267 87.4655V92.4242H24.834V67.6308C24.834 66.2622 23.7057 65.1515 22.3154 65.1515C20.9252 65.1515 19.7969 66.2622 19.7969 67.6308V94.9036C19.7969 96.2722 20.9252 97.3829 22.3154 97.3829Z" fill="black"/>
    <path d="M99.9805 97.3829H115.092V117.218C115.092 118.586 116.22 119.697 117.61 119.697C119.001 119.697 120.129 118.586 120.129 117.218V97.3829H127.684C129.075 97.3829 130.203 96.2722 130.203 94.9036C130.203 93.535 129.075 92.4242 127.684 92.4242H120.129V87.4655C120.129 86.0969 119.001 84.9862 117.61 84.9862C116.22 84.9862 115.092 86.0969 115.092 87.4655V92.4242H102.499V67.6308C102.499 66.2622 101.371 65.1515 99.9805 65.1515C98.5902 65.1515 97.4619 66.2622 97.4619 67.6308V94.9036C97.4619 96.2722 98.5902 97.3829 99.9805 97.3829Z" fill="black"/>
    <path d="M73.858 119.697C82.6746 119.697 89.8479 112.467 89.8479 103.581V81.2672C89.8479 72.3812 82.6746 65.1515 73.858 65.1515C65.0415 65.1515 57.8682 72.3812 57.8682 81.2672V103.581C57.8682 112.467 65.0415 119.697 73.858 119.697ZM62.7881 81.2672C62.7881 75.116 67.7548 70.1102 73.858 70.1102C79.9612 70.1102 84.9279 75.116 84.9279 81.2672V103.581C84.9279 109.732 79.9612 114.738 73.858 114.738C67.7548 114.738 62.7881 109.732 62.7881 103.581V81.2672Z" fill="black"/>
    <path d="M0 0V35V150H150V35V0H0ZM5 5H145V30H5V5ZM145 145H5V35H145V145Z" fill="black"/>
    <path d="M135.855 8.33337L130.203 13.9566L124.551 8.33337L121.066 11.801L126.718 17.4243L121.066 23.0476L124.551 26.5152L130.203 20.8919L135.855 26.5152L139.34 23.0476L133.688 17.4243L139.34 11.801L135.855 8.33337Z" fill="black"/>
    <path d="M7.61426 27.2728H105.076V7.57581H7.61426V27.2728ZM12.6123 12.5H100.078V22.3485H12.6123V12.5Z" fill="black"/>
</svg>
