<svg width="60" height="48" viewBox="0 0 60 48" fill="none" xmlns="http://www.w3.org/2000/svg">
    <path d="M37.5 34.5C37.0528 33.6056 37.0524 33.6058 37.052 33.6059L37.0512 33.6064L37.0492 33.6074L37.0439 33.6101L37.0285 33.618C37.016 33.6244 36.9994 33.6331 36.9789 33.644C36.9378 33.6659 36.8809 33.697 36.8105 33.7372C36.6698 33.8176 36.4743 33.9351 36.2422 34.0898C35.7796 34.3982 35.1626 34.8607 34.5429 35.4804C33.3089 36.7144 32 38.6412 32 41.25V47H28V42C28 39.7912 26.2088 38 24 38C21.7912 38 20 39.7912 20 42V47H18C16.8957 47 16 46.1043 16 45V33C16 31.8957 16.8957 31 18 31H57C58.1043 31 59 31.8957 59 33V45C59 46.1043 58.1043 47 57 47H55V42C55 39.7912 53.2088 38 51 38C48.7912 38 47 39.7912 47 42V47H43V41.25C43 38.6412 41.6911 36.7144 40.4571 35.4804C39.8374 34.8607 39.2204 34.3982 38.7578 34.0898C38.5257 33.9351 38.3302 33.8176 38.1895 33.7372C38.1191 33.697 38.0622 33.6659 38.0211 33.644C38.0006 33.6331 37.984 33.6244 37.9715 33.618L37.9561 33.6101L37.9508 33.6074L37.9488 33.6064L37.948 33.6059C37.9476 33.6058 37.9472 33.6056 37.5 34.5ZM37.5 34.5L37.9472 33.6056L37.5 33.382L37.0528 33.6056L37.5 34.5ZM37.5 1.58351C40.521 5.28627 44.2341 8.28293 48.2238 10.801L48.2238 10.801C52.5027 13.5012 56 17.0782 56 21.4772C56 23.0358 55.2576 24.5649 53.8802 26H21.1198C19.7424 24.5649 19 23.0358 19 21.4772C19 17.0782 22.4972 13.5012 26.776 10.8011C30.767 8.28381 34.4791 5.28615 37.5 1.58351ZM11 11H1V9C1 6.35876 2.3161 4.34811 3.70711 2.95711C4.3999 2.26432 5.09536 1.74245 5.6172 1.39455C5.75969 1.29956 5.88854 1.218 6 1.14991C6.11146 1.218 6.24031 1.29956 6.3828 1.39455C6.90464 1.74245 7.6001 2.26432 8.29289 2.95711C9.6839 4.34811 11 6.35876 11 9V11ZM3 47C1.89572 47 1 46.1043 1 45V16H11V45C11 46.1043 10.1043 47 9 47H3Z" fill="white" stroke="black" stroke-width="2"/>
</svg>
