<svg width="50" height="50" viewBox="0 0 50 50" fill="none" xmlns="http://www.w3.org/2000/svg">
    <path d="M10.9375 23.5875H42.1875C42.5621 23.5875 42.9214 23.7363 43.1863 24.0012C43.4512 24.2661 43.6 24.6254 43.6 25C43.6 25.3746 43.4512 25.7339 43.1863 25.9988C42.9214 26.2637 42.5621 26.4125 42.1875 26.4125H10.9375C10.5629 26.4125 10.2036 26.2637 9.93871 25.9988C9.67382 25.7339 9.525 25.3746 9.525 25C9.525 24.6254 9.67382 24.2661 9.93871 24.0012C10.2036 23.7363 10.5629 23.5875 10.9375 23.5875Z" fill="black" stroke="black" stroke-width="0.3"/>
    <path d="M11.4782 24.8939L11.3721 25L11.4782 25.1061L24.4375 38.0623C24.4375 38.0623 24.4376 38.0623 24.4376 38.0623C24.7028 38.3276 24.8518 38.6874 24.8518 39.0625C24.8518 39.4377 24.7028 39.7974 24.4375 40.0627C24.1723 40.328 23.8125 40.477 23.4374 40.477C23.0622 40.477 22.7024 40.328 22.4372 40.0627L8.37468 26.0002L8.37454 26.0001C8.243 25.8689 8.13864 25.713 8.06743 25.5414C7.99622 25.3698 7.95957 25.1858 7.95957 25C7.95957 24.8142 7.99622 24.6303 8.06743 24.4587C8.13864 24.2871 8.243 24.1312 8.37455 24L8.37468 23.9998L22.4372 9.93734C22.7024 9.67207 23.0622 9.52305 23.4374 9.52305C23.8125 9.52305 24.1723 9.67207 24.4375 9.93734C24.7028 10.2026 24.8518 10.5624 24.8518 10.9375C24.8518 11.3127 24.7028 11.6724 24.4375 11.9377L11.4782 24.8939Z" fill="black" stroke="black" stroke-width="0.3"/>
</svg>
