<svg width="30" height="30" viewBox="0 0 30 30" fill="none" xmlns="http://www.w3.org/2000/svg">
    <path d="M20.5824 20.4992L21.2832 19.7648L19.656 18.0399L18.9555 18.7743L20.5824 20.4992ZM23.6362 19.4571L26.5752 21.1413L27.6773 19.0044L24.7383 17.3202L23.6362 19.4571ZM27.141 24.4886L24.9557 26.7791L26.5826 28.504L28.768 26.2135L27.141 24.4886ZM23.6241 27.5166C21.3936 27.7357 15.623 27.5405 9.37506 20.9918L7.74804 22.7167C14.5661 29.8629 21.0553 30.2119 23.8382 29.9385L23.6241 27.5166ZM9.37506 20.9918C3.41952 14.7497 2.43299 9.49953 2.31019 7.22184L0.00638223 7.35985C0.160925 10.2266 1.38248 16.0448 7.74804 22.7167L9.37506 20.9918ZM11.4908 10.9699L11.932 10.5075L10.305 8.78262L9.86381 9.24507L11.4908 10.9699ZM12.2832 4.61264L10.3434 1.88123L8.49617 3.33894L10.4359 6.07037L12.2832 4.61264ZM3.81923 1.28672L1.40464 3.81752L3.03166 5.54238L5.44625 3.01157L3.81923 1.28672ZM10.6773 10.1075C9.86381 9.24507 9.8616 9.24739 9.8616 9.24739L9.85937 9.24975C9.85786 9.25136 9.85632 9.25298 9.85477 9.25465C9.85164 9.25801 9.84841 9.26149 9.84509 9.26513C9.83843 9.27241 9.83138 9.28029 9.82397 9.28879C9.80912 9.30576 9.79283 9.32519 9.77539 9.34713C9.74051 9.39099 9.70099 9.44501 9.65946 9.50963C9.57619 9.63918 9.48545 9.81047 9.40846 10.0259C9.25135 10.4654 9.16712 11.0448 9.27272 11.7623C9.47922 13.1654 10.3959 15.0189 12.7442 17.4801L14.3712 15.7552C12.1737 13.4519 11.6502 12.0502 11.5529 11.3894C11.5066 11.0749 11.5546 10.9201 11.5679 10.8835C11.5759 10.8608 11.5797 10.8585 11.5699 10.874C11.5649 10.8816 11.5568 10.8934 11.544 10.9094C11.5377 10.9174 11.5302 10.9264 11.5214 10.9365C11.5169 10.9416 11.5123 10.9469 11.5071 10.9524C11.5046 10.9552 11.502 10.9581 11.4992 10.961C11.4979 10.9624 11.4965 10.9639 11.4951 10.9654L11.4929 10.9677C11.4929 10.9677 11.4908 10.9699 10.6773 10.1075ZM12.7442 17.4801C15.0933 19.9422 16.8598 20.9004 18.1931 21.116C18.8744 21.2261 19.4238 21.1383 19.8405 20.9746C20.0448 20.8944 20.2075 20.7998 20.3306 20.7129C20.3921 20.6695 20.4435 20.6281 20.4852 20.5916C20.5061 20.5735 20.5246 20.5564 20.5408 20.5409C20.5489 20.5331 20.5564 20.5258 20.5634 20.5188C20.5669 20.5152 20.5701 20.5118 20.5734 20.5086C20.5749 20.507 20.5764 20.5053 20.578 20.5037L20.5803 20.5015C20.5803 20.5015 20.5824 20.4992 19.769 19.6367C18.9555 18.7743 18.9576 18.772 18.9576 18.772L18.9598 18.7698C18.9612 18.7683 18.9626 18.7668 18.9639 18.7654C18.9669 18.7626 18.9695 18.7599 18.9721 18.7571C18.9775 18.7518 18.9826 18.7469 18.9873 18.7422C18.9969 18.7331 19.0055 18.7252 19.0132 18.7187C19.0282 18.7054 19.0395 18.6969 19.0464 18.6919C19.0607 18.6819 19.0578 18.6864 19.035 18.6953C18.9973 18.7101 18.8464 18.7608 18.543 18.7117C17.9072 18.6091 16.5681 18.0577 14.3712 15.7552L12.7442 17.4801ZM10.3434 1.88123C8.77535 -0.326713 5.69191 -0.676085 3.81923 1.28672L5.44625 3.01157C6.26416 2.15429 7.7168 2.24155 8.49617 3.33894L10.3434 1.88123ZM2.31019 7.22184C2.27993 6.66059 2.52412 6.07432 3.03166 5.54238L1.40464 3.81752C0.578049 4.68389 -0.0717814 5.9103 0.00638223 7.35985L2.31019 7.22184ZM24.9557 26.7791C24.5329 27.2223 24.0797 27.4719 23.6241 27.5166L23.8382 29.9385C24.9683 29.8274 25.8942 29.2256 26.5826 28.504L24.9557 26.7791ZM11.932 10.5075C13.4465 8.92005 13.5591 6.40918 12.2832 4.61264L10.4359 6.07037C11.0567 6.94437 10.9644 8.09155 10.305 8.78262L11.932 10.5075ZM26.5752 21.1413C27.8333 21.8623 28.0293 23.5575 27.141 24.4886L28.768 26.2135C30.8299 24.0524 30.1941 20.4465 27.6773 19.0044L26.5752 21.1413ZM21.2832 19.7648C21.8739 19.1456 22.8247 18.9922 23.6362 19.4571L24.7383 17.3202C23.0713 16.3649 21.0026 16.6288 19.656 18.0399L21.2832 19.7648Z" fill="#D9D9D9"/>
</svg>
