<svg width="35" height="35" viewBox="0 0 35 35" fill="none" xmlns="http://www.w3.org/2000/svg">
    <path d="M18.5473 25.3557C18.2785 25.6321 17.8986 25.7895 17.5002 25.7895C17.1017 25.7895 16.7218 25.6321 16.453 25.3557L8.8854 17.5744C8.35662 17.0307 8.3968 16.1869 8.97515 15.6898C9.55352 15.1927 10.451 15.2304 10.9798 15.7741L16.0812 21.0197V1.33394C16.0812 0.597231 16.7165 0 17.5002 0C18.2838 0 18.9191 0.597231 18.9191 1.33394V21.0197L24.0206 15.7741C24.5493 15.2304 25.4469 15.1927 26.0252 15.6898C26.6036 16.1869 26.6437 17.0307 26.1149 17.5744L18.5473 25.3557Z" fill="#4B6849"/>
    <path d="M2.69231 22.5658C2.69231 21.8028 2.08963 21.1842 1.34615 21.1842C0.602701 21.1842 9.40428e-07 21.8028 9.40428e-07 22.5658V22.6669C-3.4957e-05 25.1862 -7.0983e-05 27.2167 0.209139 28.8138C0.426355 30.4719 0.891029 31.8679 1.9714 32.9766C3.05177 34.0856 4.41205 34.5625 6.02763 34.7854C7.58373 35 9.56225 35 12.0169 35H22.9832C25.4378 35 27.4163 35 28.9725 34.7854C30.588 34.5625 31.9482 34.0856 33.0287 32.9766C34.109 31.8679 34.5737 30.4719 34.7909 28.8138C35 27.2167 35 25.1862 35 22.6669V22.5658C35 21.8028 34.3973 21.1842 33.6538 21.1842C32.9104 21.1842 32.3077 21.8028 32.3077 22.5658C32.3077 25.2099 32.3048 27.0541 32.1226 28.4456C31.9455 29.7973 31.6217 30.513 31.1249 31.0229C30.628 31.5328 29.9307 31.8651 28.6137 32.0469C27.2578 32.2339 25.461 32.2368 22.8846 32.2368H12.1154C9.53901 32.2368 7.74213 32.2339 6.38637 32.0469C5.06935 31.8651 4.3719 31.5328 3.87515 31.0229C3.3784 30.513 3.05451 29.7973 2.87745 28.4456C2.69516 27.0541 2.69231 25.2099 2.69231 22.5658Z" fill="#4B6849"/>
</svg>
