<svg width="40" height="35" viewBox="0 0 40 35" fill="none" xmlns="http://www.w3.org/2000/svg">
    <path d="M39.9814 11.3203C39.8305 8.30457 38.6369 5.47282 36.6204 3.34665C34.5737 1.18855 31.9009 0 29.0947 0C24.8923 0 21.917 3.47211 20.3186 5.33757C20.2276 5.44364 20.1299 5.55761 20.0344 5.66779C19.9832 5.60566 19.9324 5.5437 19.8839 5.48466C18.4228 3.70433 15.3823 0 10.9061 0C8.09983 0 5.42722 1.18855 3.38052 3.34665C1.36383 5.47282 0.170242 8.30457 0.0194191 11.3203C-0.130441 14.3182 0.582116 16.9196 2.32925 19.7553C3.89508 22.2974 7.97275 26.3165 10.9887 28.9857C14.0886 31.7294 18.1716 35 20.0176 35C21.8926 35 25.9611 31.7362 29.0438 28.9984C32.0364 26.3407 36.0916 22.3248 37.672 19.7543C38.8479 17.8416 40.1733 15.1544 39.9814 11.3203ZM35.6612 18.3397C34.5129 20.2079 31.276 23.6594 27.6065 26.9288C23.2312 30.8273 20.6407 32.3637 20.0195 32.4248C19.3992 32.3557 16.8023 30.8038 12.4057 26.8981C8.71467 23.6193 5.47295 20.1794 4.33889 18.3387C2.89307 15.9921 2.30214 13.8701 2.42264 11.4576C2.66764 6.55942 6.47335 2.5743 10.9059 2.5743C14.2925 2.5743 16.7532 5.57237 18.0753 7.18279C18.8525 8.12985 19.2808 8.65144 20.0005 8.65144C20.7436 8.65144 21.2229 8.09209 22.0928 7.07689C23.5359 5.39267 25.9511 2.5743 29.0947 2.5743C33.5274 2.5743 37.333 6.55942 37.5781 11.4576C37.7001 13.8974 37.1268 15.9557 35.6612 18.3397Z" fill="#D9D9D9"/>
</svg>
