<svg width="39" height="34" viewBox="0 0 39 34" fill="none" xmlns="http://www.w3.org/2000/svg">
    <path d="M34.2167 4.7C35.9992 6.42545 37 8.76155 37 11.1969C37 13.6322 35.9992 15.9683 34.2167 17.6937L19.4954 32L4.774 17.6937C3.45014 16.4087 2.54883 14.7757 2.18291 12.9992C1.81698 11.2226 2.0027 9.3815 2.71681 7.70624C3.43092 6.03098 4.6417 4.59603 6.19757 3.58103C7.75344 2.56602 9.58527 2.01607 11.4638 2C13.9756 2.01469 16.3799 2.98505 18.1535 4.7C18.6708 5.19354 19.1216 5.7479 19.4954 6.35C19.8691 5.7479 20.3199 5.19354 20.8372 4.7C21.7111 3.8451 22.7526 3.16624 23.901 2.70287C25.0495 2.2395 26.282 2.00089 27.5269 2.00089C28.7719 2.00089 30.0044 2.2395 31.1529 2.70287C32.3013 3.16624 33.3428 3.8451 34.2167 4.7Z" stroke="#4B6849" stroke-width="3" stroke-linecap="round" stroke-linejoin="round"/>
</svg>
