<svg width="74" height="57" viewBox="0 0 74 57" fill="none" xmlns="http://www.w3.org/2000/svg">
    <path d="M2 14.1143C2 9.87387 2 7.75368 2.84774 6.13408C3.59339 4.7094 4.78324 3.55112 6.24674 2.82525C7.91049 2 10.0885 2 14.4444 2H27.9565C29.8588 2 30.8101 2 31.7053 2.2092C32.4986 2.39466 33.2573 2.70058 33.9534 3.11573C34.7382 3.58394 35.411 4.23868 36.7562 5.5482L37.2438 6.02323C38.589 7.33275 39.2618 7.98748 40.0466 8.4557C40.7427 8.87084 41.5014 9.17677 42.2947 9.36223C43.1899 9.57143 44.1412 9.57143 46.0436 9.57143H59.5555C63.9115 9.57143 66.0897 9.57143 67.7533 10.3967C69.2167 11.1225 70.4067 12.2808 71.1522 13.7055C72 15.3251 72 17.4453 72 21.6857V42.8857C72 47.1261 72 49.2465 71.1522 50.866C70.4067 52.2906 69.2167 53.449 67.7533 54.1747C66.0897 55 63.9115 55 59.5555 55H14.4444C10.0885 55 7.91049 55 6.24674 54.1747C4.78324 53.449 3.59339 52.2906 2.84774 50.866C2 49.2465 2 47.1261 2 42.8857V14.1143Z" stroke="black" stroke-width="3" stroke-linecap="round" stroke-linejoin="round"/>
</svg>
