<svg width="54" height="54" viewBox="0 0 54 54" fill="none" xmlns="http://www.w3.org/2000/svg">
    <g filter="url(#filter0_d_202_26)">
        <path d="M48 23.4282V26.6225C48 34.8142 48 38.9102 45.5396 41.455C43.0795 44 39.1195 44 31.2 44H22.8C14.8804 44 10.9206 44 8.4603 41.455C6 38.9102 6 34.8142 6 26.6225V23.4282C6 18.6225 6 16.2197 7.09032 14.2278C8.18064 12.2358 10.1726 10.9996 14.1565 8.52707L18.3565 5.92043C22.5677 3.30681 24.6734 2 27 2C29.3266 2 31.4323 3.30681 35.6436 5.92043L39.8436 8.52705C43.8275 10.9996 45.8194 12.2358 46.9097 14.2278" stroke="#D9D9D9" stroke-width="3.75" stroke-linecap="round"/>
        <path d="M33.3 35.6001H20.7" stroke="#D9D9D9" stroke-width="3.75" stroke-linecap="round"/>
    </g>
    <defs>
        <filter id="filter0_d_202_26" x="0.125" y="0.125" width="53.75" height="53.75" filterUnits="userSpaceOnUse" color-interpolation-filters="sRGB">
            <feFlood flood-opacity="0" result="BackgroundImageFix"/>
            <feColorMatrix in="SourceAlpha" type="matrix" values="0 0 0 0 0 0 0 0 0 0 0 0 0 0 0 0 0 0 127 0" result="hardAlpha"/>
            <feOffset dy="4"/>
            <feGaussianBlur stdDeviation="2"/>
            <feComposite in2="hardAlpha" operator="out"/>
            <feColorMatrix type="matrix" values="0 0 0 0 0 0 0 0 0 0 0 0 0 0 0 0 0 0 0.25 0"/>
            <feBlend mode="normal" in2="BackgroundImageFix" result="effect1_dropShadow_202_26"/>
            <feBlend mode="normal" in="SourceGraphic" in2="effect1_dropShadow_202_26" result="shape"/>
        </filter>
    </defs>
</svg>
