<svg width="60" height="60" viewBox="0 0 60 60" fill="none" xmlns="http://www.w3.org/2000/svg">
    <path d="M2 19V55C2 55.5519 2.44801 55.9999 2.99996 55.9999C3.55191 55.9999 3.99992 55.5519 3.99992 55V19C3.99992 18.448 3.55191 18 2.99996 18C2.44801 18 2 18.448 2 19Z" fill="black"/>
    <path d="M6 23.0001V25.0001C6 25.5521 6.44801 26.0001 6.99996 26.0001C7.55191 26.0001 7.99992 25.5521 7.99992 25.0001V23.0001C7.99992 22.4481 7.55191 22.0001 6.99996 22.0001C6.44801 22.0001 6 22.448 6 23.0001Z" fill="black"/>
    <path d="M59 58H0.999961C0.448008 58 0 58.448 0 59C0 59.5519 0.448008 60 0.999961 60H58.9999C59.5529 60 59.9999 59.552 59.9999 59.0001C59.9999 58.4481 59.553 58 59 58Z" fill="black"/>
    <path d="M48.9999 56C49.5529 56 49.9998 55.552 49.9998 55.0001V19.0001C49.9998 18.4481 49.5529 18.0001 48.9999 18.0001C48.4469 18.0001 47.9999 18.4481 47.9999 19.0001V38H44V37.0001C44 36.4481 43.553 36.0001 43 36.0001C42.447 36.0001 42 36.4481 42 37.0001V54H38.0001V46C38.0001 41.5889 34.4111 37.9999 30 37.9999C25.589 37.9999 22 41.5889 22 46V54H17.9999V37C17.9999 36.448 17.5519 36 17 36C16.448 36 16 36.448 16 37V37.9999H11.9999V19C11.9999 18.448 11.5519 18 11 18C10.448 18 10 18.448 10 19V55C10 55.5519 10.448 55.9999 11 55.9999C11.5519 55.9999 11.9999 55.5519 11.9999 55V40H15.9999V54H14.9999C14.448 54 14 54.448 14 55C14 55.5519 14.448 55.9999 14.9999 55.9999H44.9999C45.5529 55.9999 45.9999 55.5519 45.9999 55C45.9999 54.448 45.5529 54 44.9999 54H44V40H47.9999V55C47.9999 55.552 48.4469 56 48.9999 56ZM29 48C28.448 48 28 48.448 28 49C28 49.5519 28.448 49.9999 29 49.9999V54H23.9999V46C23.9999 43.033 26.167 40.569 29 40.09V48ZM35.9999 54H30.9999V50C31.5529 50 31.9998 49.552 31.9998 49.0001C31.9998 48.4481 31.5529 48.0001 30.9999 48.0001V40.0901C33.8329 40.569 35.9999 43.0331 35.9999 46.0001V54Z" fill="black"/>
    <path d="M52 23.0001V25.0001C52 25.5521 52.447 26.0001 53 26.0001C53.553 26.0001 53.9999 25.5521 53.9999 25.0001V23.0001C53.9999 22.4481 53.553 22.0001 53 22.0001C52.4471 22 52 22.448 52 23.0001Z" fill="black"/>
    <path d="M49.0001 16H57.0001C57.3791 16 57.7251 15.786 57.8941 15.447C59.6721 11.892 56.9441 8.5009 55.1401 6.25699C54.6051 5.59301 54.1011 4.96594 53.8951 4.55297C53.5551 3.87492 52.4451 3.87492 52.1051 4.55297C51.899 4.96594 51.3941 5.59301 50.8601 6.25699C49.0561 8.50102 46.3281 11.892 48.1051 15.447C48.2751 15.786 48.6211 16 49.0001 16ZM52.4191 7.50996C52.6231 7.25602 52.8191 7.01297 53.0001 6.78C53.1812 7.01297 53.3771 7.25602 53.5812 7.50996C55.1151 9.41801 56.9972 11.756 56.3251 13.9999H49.6751C49.0031 11.756 50.8851 9.41801 52.4191 7.50996Z" fill="black"/>
    <path d="M57 18C56.447 18 56 18.448 56 19V55C56 55.5519 56.447 55.9999 57 55.9999C57.553 55.9999 57.9999 55.5519 57.9999 55V19C57.9999 18.448 57.553 18 57 18Z" fill="black"/>
    <path d="M3.00007 16H11.0001C11.3791 16 11.7251 15.786 11.8951 15.447C13.6721 11.892 10.9441 8.5009 9.14011 6.25699C8.60514 5.59301 8.10112 4.96594 7.89405 4.55297C7.55608 3.87492 6.44409 3.87492 6.10507 4.55297C5.89905 4.96594 5.39409 5.59301 4.86007 6.25699C3.05608 8.50102 0.328073 11.892 2.1051 15.447C2.27503 15.786 2.62108 16 3.00007 16ZM6.41901 7.50996C6.62303 7.25602 6.81897 7.01297 7.00003 6.78C7.18108 7.01297 7.37608 7.25602 7.58104 7.50996C9.11608 9.41801 10.9971 11.756 10.325 13.9999H3.67507C3.00311 11.756 4.88409 9.41801 6.41901 7.50996Z" fill="black"/>
    <path d="M21 30C21.5519 30 21.9999 29.552 21.9999 29V27C21.9999 26.448 21.5519 26 21 26C20.448 26 20 26.448 20 27V29C20 29.552 20.448 30 21 30Z" fill="black"/>
    <path d="M17 34H43C43.4511 34 43.846 33.698 43.9651 33.263C46.1061 25.4089 41.0761 21.205 36.638 17.496C34.402 15.627 32.294 13.855 31 11.712V7.85801C31.673 7.68504 32.296 7.35199 32.8031 6.85195C33.1961 6.465 33.2021 5.83195 32.8141 5.43797C32.4281 5.04398 31.793 5.03895 31.4001 5.42695C31.0242 5.79598 30.5271 6 30.0001 6C28.8971 6 28 5.10305 28 3.99996C28 2.89699 28.897 1.99992 30.0001 1.99992C30.552 1.99992 31 1.55191 31 0.999961C31 0.448008 30.5519 0 30 0C27.7939 0 26 1.79402 26 3.99996C26 5.85797 27.28 7.41094 29 7.85801V11.712C27.706 13.855 25.598 15.627 23.362 17.496C18.924 21.205 13.893 25.4089 16.035 33.263C16.1539 33.698 16.5489 34 17 34ZM24.645 19.03C26.5689 17.4219 28.547 15.769 30 13.8159C31.453 15.769 33.431 17.4219 35.355 19.03C39.5539 22.5389 43.528 25.86 42.215 31.9999H17.7849C16.472 25.86 20.446 22.539 24.645 19.03Z" fill="black"/>
    <path d="M27 30C27.5519 30 27.9999 29.552 27.9999 29V27C27.9999 26.448 27.5519 26 27 26C26.448 26 26 26.448 26 27V29C26 29.552 26.448 30 27 30Z" fill="black"/>
    <path d="M33 30C33.553 30 33.9999 29.552 33.9999 29V27C33.9999 26.448 33.553 26 33 26C32.447 26 32 26.448 32 27V29C32 29.552 32.447 30 33 30Z" fill="black"/>
    <path d="M39 30C39.553 30 39.9999 29.552 39.9999 29V27C39.9999 26.448 39.553 26 39 26C38.447 26 38 26.448 38 27V29C38 29.552 38.447 30 39 30Z" fill="black"/>
</svg>
