<svg width="47" height="41" viewBox="0 0 47 41" fill="none" xmlns="http://www.w3.org/2000/svg">
    <path d="M34.7638 0.0715332C29.5669 0.0715332 25.204 1.8386 23.4233 4.39913C21.6429 1.8385 17.3437 0.0715332 12.147 0.0715332C5.31403 0.0715332 0 3.12473 0 7.02271V39.7927C0 40.3411 0.33873 40.7858 0.819379 40.7858C1.29984 40.7858 1.66409 40.3412 1.66409 39.7927C1.66409 37.4442 5.94073 34.8276 12.0958 34.8276C18.2509 34.8276 22.5338 37.4443 22.5338 39.7927C22.5338 40.3411 22.9204 40.7858 23.401 40.7858C23.8817 40.7858 24.2697 40.3412 24.2697 39.7927C24.2697 37.4442 28.5585 34.8276 34.7135 34.8276C40.8686 34.8276 45.1575 37.4443 45.1575 39.7927C45.1575 40.3411 45.5981 40.7858 46.0787 40.7858C46.5594 40.7858 47 40.3411 47 39.7927V7.02271C47 3.12473 41.5967 0.0715332 34.7638 0.0715332ZM22.6296 36.1614C20.4536 34.1562 16.6688 32.8415 12.1851 32.8415C7.70148 32.8415 3.69905 34.1562 1.74065 36.1614V7.02271C1.74065 4.67426 6.03005 2.0576 12.1851 2.0576C18.3402 2.0576 22.6296 4.67426 22.6296 7.02271V36.1614ZM45.2593 36.1614C43.0833 34.1562 39.2984 32.8415 34.8148 32.8415C30.3312 32.8415 26.3287 34.1562 24.3703 36.1614V7.02271C24.3703 4.67426 28.6597 2.0576 34.8148 2.0576C40.9699 2.0576 45.2593 4.67426 45.2593 7.02271V36.1614Z" fill="black"/>
</svg>
