<svg width="48" height="47" viewBox="0 0 48 47" fill="none" xmlns="http://www.w3.org/2000/svg">
    <path d="M16.5 45.5H4C2.6193 45.5 1.5 44.3807 1.5 43V24.0355C1.5 23.3725 1.7634 22.7365 2.23223 22.2677L22.2323 2.26777C23.2085 1.29144 24.7915 1.29144 25.7677 2.26777L45.7677 22.2677C46.2365 22.7365 46.5 23.3725 46.5 24.0355V43C46.5 44.3807 45.3807 45.5 44 45.5H31.5M16.5 45.5H31.5M16.5 45.5V30.5C16.5 29.1192 17.6193 28 19 28H29C30.3807 28 31.5 29.1192 31.5 30.5V45.5" stroke="#D9D9D9" stroke-width="2.5" stroke-linejoin="round"/>
</svg>
