<svg width="67" height="67" viewBox="0 0 67 67" fill="none" xmlns="http://www.w3.org/2000/svg">
    <path fill-rule="evenodd" clip-rule="evenodd" d="M33.335 66.67C51.7453 66.67 66.67 51.7453 66.67 33.335C66.67 14.9246 51.7453 0 33.335 0C14.9246 0 0 14.9246 0 33.335C0 51.7453 14.9246 66.67 33.335 66.67ZM20.2547 22.0588C20.001 22.6714 20.001 23.448 20.001 25.0012V41.6687C20.001 43.2218 20.001 43.9985 20.2547 44.6112C20.5931 45.4279 21.242 46.077 22.0588 46.4153C22.6714 46.669 23.448 46.669 25.0012 46.669C26.5545 46.669 27.331 46.669 27.9437 46.4153C28.7604 46.077 29.4095 45.4279 29.7478 44.6112C30.0015 43.9985 30.0015 43.2218 30.0015 41.6687V25.0012C30.0015 23.448 30.0015 22.6714 29.7478 22.0588C29.4095 21.242 28.7604 20.5931 27.9437 20.2547C27.331 20.001 26.5545 20.001 25.0012 20.001C23.448 20.001 22.6714 20.001 22.0588 20.2547C21.242 20.5931 20.5931 21.242 20.2547 22.0588ZM36.9222 22.0588C36.6685 22.6714 36.6685 23.448 36.6685 25.0012V41.6687C36.6685 43.2218 36.6685 43.9985 36.9222 44.6112C37.2605 45.4279 37.9096 46.077 38.7263 46.4153C39.339 46.669 40.1157 46.669 41.6687 46.669C43.2218 46.669 43.9985 46.669 44.6112 46.4153C45.4279 46.077 46.077 45.4279 46.4153 44.6112C46.669 43.9985 46.669 43.2218 46.669 41.6687V25.0012C46.669 23.448 46.669 22.6714 46.4153 22.0588C46.077 21.242 45.4279 20.5931 44.6112 20.2547C43.9985 20.001 43.2218 20.001 41.6687 20.001C40.1157 20.001 39.339 20.001 38.7263 20.2547C37.9096 20.5931 37.2605 21.242 36.9222 22.0588Z" fill="#4B6849"/>
</svg>
