<svg width="64" height="59" viewBox="0 0 64 59" fill="none" xmlns="http://www.w3.org/2000/svg">
    <path d="M39.5936 42.3861L45.7045 36.5335L57.25 49.0727V51.3183H6.75V41.0373L20.7897 26.6427L35.5606 42.2509C36.089 42.9024 36.8264 43.1866 37.5554 43.1796C38.2755 43.1727 38.9735 42.8873 39.5267 42.4447L39.5614 42.4169L39.5936 42.3861ZM18.7333 20.2852L6.74625 32.6253V7.67962H57.2463V40.4404L47.9671 30.3945L47.9608 30.3877L47.9544 30.381C46.9308 29.3133 45.2996 29.1968 44.1477 30.1231L44.1215 30.1442L44.0967 30.167L37.7539 36.012L22.9381 20.5078C22.4389 19.8927 21.719 19.5065 20.9274 19.449L20.9104 19.4478L20.8934 19.4471C20.1228 19.4175 19.3363 19.685 18.7453 20.2732L18.7392 20.2791L18.7333 20.2852ZM58.25 1.71423H5.75C3.08475 1.71423 1 4.00309 1 6.68161V52.3183C1 54.9965 3.08256 57.2857 5.75 57.2857H58.25C60.9153 57.2857 63 54.9968 63 52.3183V6.68161C63 4.00309 60.9152 1.71423 58.25 1.71423ZM45.125 23.565C47.7962 23.565 49.8656 21.2897 49.8656 18.6075C49.8656 15.9257 47.7984 13.6501 45.125 13.6501C42.4516 13.6501 40.3844 15.9257 40.3844 18.6075C40.3844 21.2893 42.4516 23.565 45.125 23.565Z" stroke="black" stroke-width="2"/>
</svg>
