<svg width="61" height="49" viewBox="0 0 61 49" fill="none" xmlns="http://www.w3.org/2000/svg">
    <path fill-rule="evenodd" clip-rule="evenodd" d="M59.4207 20.625H54.09C52.2807 8.9475 42.2044 0 30.0094 0C20.6063 0 12.4594 5.32318 8.38502 13.1082L11.88 14.505C15.3844 8.09629 22.1888 3.75 30.0094 3.75C40.1288 3.75 48.5307 11.0269 50.2988 20.625H43.8938C43.3126 21.1894 42.7575 21.5363 43.59 22.5132L50.5838 29.6269C51.165 30.1894 52.1044 30.1894 52.6819 29.6269L59.7244 22.5132C60.3038 21.9488 60.0001 21.1894 59.4207 20.625ZM30.0094 45C20.5613 45 12.6057 38.655 10.1569 30H16.2525C16.8338 29.4375 17.1357 28.6763 16.5582 28.1138L9.51564 20.9981C8.93626 20.4356 7.99691 20.4356 7.41754 20.9981L0.421936 28.1138C-0.408689 29.0907 0.146287 29.4375 0.725662 30H6.31501C8.85751 40.7438 18.4782 48.75 30.0094 48.75C38.7844 48.75 46.4532 44.1075 50.7525 37.1625L47.2219 35.7525C43.5263 41.3231 37.2001 45 30.0094 45Z" fill="#4B6849"/>
</svg>
