<svg width="53" height="51" viewBox="0 0 53 51" fill="none" xmlns="http://www.w3.org/2000/svg">
    <path d="M22.0435 15.1829C22.6283 15.4915 23 16.1407 23 16.853V34.1471C23 35.1704 22.2444 36 21.3125 36C20.3806 36 19.6251 35.1704 19.6251 34.1471V20.7083L16.7417 23.2411C16.014 23.8803 14.952 23.7508 14.3699 22.9516C13.7876 22.1526 13.9056 20.9865 14.6334 20.3472L20.2584 15.4061C20.7649 14.9611 21.459 14.8743 22.0435 15.1829Z" fill="#1C274C"/>
    <path fill-rule="evenodd" clip-rule="evenodd" d="M32 15C28.6863 15 26 17.7653 26 21.1765V29.8235C26 33.2347 28.6863 36 32 36C35.3137 36 38 33.2347 38 29.8235V21.1765C38 17.7653 35.3137 15 32 15ZM32 18.7059C30.6745 18.7059 29.6 19.812 29.6 21.1765V29.8235C29.6 31.188 30.6745 32.2941 32 32.2941C33.3255 32.2941 34.4 31.188 34.4 29.8235V21.1765C34.4 19.812 33.3255 18.7059 32 18.7059Z" fill="#1C274C"/>
    <path opacity="0.5" fill-rule="evenodd" clip-rule="evenodd" d="M24.8336 1.0084C25.1415 0.392012 25.7893 0 26.5 0C28.3126 0 30.0845 0.175392 31.798 0.510071C43.8946 2.87289 53 13.1612 53 25.5C53 39.5834 41.1356 51 26.5 51C11.8645 51 0 39.5834 0 25.5C0 15.0406 6.54387 6.05591 15.8993 2.1226C16.835 1.72921 17.9249 2.1402 18.3337 3.04057C18.7425 3.94092 18.3154 4.98972 17.3798 5.38311C9.32255 8.77062 3.69767 16.5052 3.69767 25.5C3.69767 37.6181 13.9066 47.4419 26.5 47.4419C39.0933 47.4419 49.3023 37.6181 49.3023 25.5C49.3023 15.6547 42.5622 7.3208 33.2791 4.5436V7.7093C33.2791 8.46486 32.7831 9.13799 32.0423 9.38808C31.3013 9.63817 30.477 9.41066 29.9864 8.82068L25.0562 2.89044C24.6122 2.35641 24.5257 1.62479 24.8336 1.0084Z" fill="#1C274C"/>
    <path d="M22.0435 15.1829C22.6283 15.4915 23 16.1407 23 16.853V34.1471C23 35.1704 22.2444 36 21.3125 36C20.3806 36 19.6251 35.1704 19.6251 34.1471V20.7083L16.7417 23.2411C16.014 23.8803 14.952 23.7508 14.3699 22.9516C13.7876 22.1526 13.9056 20.9865 14.6334 20.3472L20.2584 15.4061C20.7649 14.9611 21.459 14.8743 22.0435 15.1829Z" fill="#4B6849"/>
    <path fill-rule="evenodd" clip-rule="evenodd" d="M32 15C28.6863 15 26 17.7653 26 21.1765V29.8235C26 33.2347 28.6863 36 32 36C35.3137 36 38 33.2347 38 29.8235V21.1765C38 17.7653 35.3137 15 32 15ZM32 18.7059C30.6745 18.7059 29.6 19.812 29.6 21.1765V29.8235C29.6 31.188 30.6745 32.2941 32 32.2941C33.3255 32.2941 34.4 31.188 34.4 29.8235V21.1765C34.4 19.812 33.3255 18.7059 32 18.7059Z" fill="#4B6849"/>
    <path fill-rule="evenodd" clip-rule="evenodd" d="M24.8336 1.0084C25.1415 0.392012 25.7893 0 26.5 0C28.3126 0 30.0845 0.175392 31.798 0.510071C43.8946 2.87289 53 13.1613 53 25.5C53 39.5834 41.1356 51 26.5 51C11.8645 51 0 39.5834 0 25.5C0 15.0406 6.54387 6.05591 15.8993 2.1226C16.835 1.72921 17.9249 2.1402 18.3337 3.04057C18.7425 3.94092 18.3154 4.98972 17.3798 5.38311C9.32255 8.77062 3.69767 16.5052 3.69767 25.5C3.69767 37.6181 13.9066 47.4419 26.5 47.4419C39.0933 47.4419 49.3023 37.6181 49.3023 25.5C49.3023 15.6547 42.5622 7.3208 33.2791 4.5436V7.7093C33.2791 8.46486 32.7831 9.13799 32.0423 9.38808C31.3013 9.63817 30.477 9.41066 29.9864 8.82068L25.0562 2.89044C24.6122 2.35641 24.5257 1.62479 24.8336 1.0084Z" fill="#4B6849"/>
</svg>
