<svg width="53" height="51" viewBox="0 0 53 51" fill="none" xmlns="http://www.w3.org/2000/svg">
    <path d="M21.9372 15.1829C22.587 15.4915 23 16.1407 23 16.853V34.1471C23 35.1704 22.1605 36 21.125 36C20.0895 36 19.2501 35.1704 19.2501 34.1471V20.7083L16.0464 23.2411C15.2377 23.8803 14.0578 23.7508 13.4109 22.9516C12.764 22.1526 12.8951 20.9865 13.7038 20.3472L19.9538 15.4061C20.5166 14.9611 21.2877 14.8743 21.9372 15.1829Z" fill="#4B6849"/>
    <path fill-rule="evenodd" clip-rule="evenodd" d="M32 15C28.6863 15 26 17.7653 26 21.1765V29.8235C26 33.2347 28.6863 36 32 36C35.3137 36 38 33.2347 38 29.8235V21.1765C38 17.7653 35.3137 15 32 15ZM32 18.7059C30.6745 18.7059 29.6 19.812 29.6 21.1765V29.8235C29.6 31.188 30.6745 32.2941 32 32.2941C33.3255 32.2941 34.4 31.188 34.4 29.8235V21.1765C34.4 19.812 33.3255 18.7059 32 18.7059Z" fill="#4B6849"/>
    <path fill-rule="evenodd" clip-rule="evenodd" d="M28.1664 1.0084C27.8585 0.392012 27.2107 0 26.5 0C24.6874 0 22.9155 0.175392 21.202 0.510071C9.10533 2.87289 0 13.1612 0 25.5C0 39.5834 11.8645 51 26.5 51C41.1356 51 53 39.5834 53 25.5C53 15.0406 46.4561 6.05591 37.1007 2.1226C36.165 1.72921 35.0752 2.1402 34.6662 3.04057C34.2575 3.94092 34.6847 4.98972 35.6202 5.38311C43.6774 8.77062 49.3023 16.5052 49.3023 25.5C49.3023 37.6181 39.0933 47.4419 26.5 47.4419C13.9066 47.4419 3.69767 37.6181 3.69767 25.5C3.69767 15.6547 10.4378 7.3208 19.7209 4.5436V7.7093C19.7209 8.46486 20.2169 9.13799 20.9578 9.38808C21.6987 9.63817 22.523 9.41066 23.0136 8.82068L27.9438 2.89044C28.3878 2.35641 28.4743 1.62479 28.1664 1.0084Z" fill="#4B6849"/>
</svg>
