<svg width="35" height="35" viewBox="0 0 35 35" fill="none" xmlns="http://www.w3.org/2000/svg">
    <path d="M22.5718 33.2489C23.7546 33.2489 23.7546 35 22.5718 35H0.899195C0.402547 35 0 34.6077 0 34.1242V7.75846C0 7.51672 0.100637 7.29746 0.263137 7.13927L7.33384 0.25658C7.50941 0.0856679 7.73944 0 7.96947 0H28.3098C28.8065 0 29.2095 0.392291 29.2095 0.875764V16.201C29.2095 17.3528 27.4106 17.3528 27.4106 16.201V1.7511H8.34195L1.79883 8.12106V33.2489H22.5718ZM7.27111 25.5312C6.08787 25.5312 6.08787 23.7801 7.27111 23.7801H20.6314C21.8146 23.7801 21.8146 25.5312 20.6314 25.5312H7.27111ZM7.27111 13.882C6.08787 13.882 6.08787 12.1309 7.27111 12.1309H20.6314C21.8146 12.1309 21.8146 13.882 20.6314 13.882H7.27111ZM7.27111 17.7651C6.08787 17.7651 6.08787 16.014 7.27111 16.014H20.6314C21.8146 16.014 21.8146 17.7651 20.6314 17.7651H7.27111ZM7.27111 21.6481C6.08787 21.6481 6.08787 19.897 7.27111 19.897H20.6314C21.8146 19.897 21.8146 21.6481 20.6314 21.6481H7.27111ZM7.27111 9.99897C6.08787 9.99897 6.08787 8.24787 7.27111 8.24787H20.6314C21.8146 8.24787 21.8146 9.99897 20.6314 9.99897H7.27111ZM28.9045 20.1031C31.0758 20.1031 32.8359 21.8165 32.8359 23.9302C32.8359 24.6978 32.6037 25.4124 32.2042 26.0112C33.8409 27.0685 34.8822 28.8137 34.998 30.7272C35.0673 31.8748 33.275 31.977 33.2062 30.8298C33.1143 29.3162 32.2212 27.968 30.848 27.2572C30.2747 27.5753 29.6116 27.7568 28.9045 27.7568C28.1395 27.7568 27.4255 27.5443 26.8216 27.1762C25.3648 27.8599 24.3994 29.256 24.304 30.8298C24.2347 31.977 22.4429 31.8748 22.5121 30.7272C22.6337 28.7263 23.7646 26.9154 25.5216 25.8806C25.1735 25.3094 24.9736 24.6427 24.9736 23.9302C24.9736 21.8169 26.7336 20.1031 28.9045 20.1031ZM28.9045 21.8542C27.7269 21.8542 26.7724 22.7838 26.7724 23.9302C26.7724 25.0765 27.7269 26.0057 28.9045 26.0057C30.0821 26.0057 31.0371 25.0765 31.0371 23.9302C31.0371 22.7838 30.0825 21.8542 28.9045 21.8542Z" fill="#D9D9D9"/>
</svg>
