<svg width="58" height="53" viewBox="0 0 58 53" fill="none" xmlns="http://www.w3.org/2000/svg">
    <path d="M13.4444 52L29 40.6667L44.5556 52M15.9333 40.6667H42.0667C47.294 40.6667 49.9073 40.6667 51.904 39.7402C53.6602 38.9253 55.0879 37.6251 55.9827 36.0257C57 34.2072 57 31.8272 57 27.0667V14.6C57 9.83955 57 7.45932 55.9827 5.64109C55.0879 4.0417 53.6602 2.74137 51.904 1.92644C49.9073 1 47.294 1 42.0667 1H15.9333C10.7062 1 8.09259 1 6.09609 1.92644C4.3399 2.74137 2.91209 4.0417 2.01727 5.64109C1 7.45932 1 9.83955 1 14.6V27.0667C1 31.8272 1 34.2072 2.01727 36.0257C2.91209 37.6251 4.3399 38.9253 6.09609 39.7402C8.09259 40.6667 10.7062 40.6667 15.9333 40.6667Z" stroke="black" stroke-width="2" stroke-linecap="round" stroke-linejoin="round"/>
</svg>
